<svg width="48" height="48" viewBox="0 0 48 48" fill="none" xmlns="http://www.w3.org/2000/svg">
<rect width="48" height="48" rx="12" fill="#FE531F" fill-opacity="0.08"/>
<g clip-path="url(#clip0_13_87)">
<path d="M35 17H34V15.5C34 13.571 32.431 12 30.501 12H17C15.346 12 14 13.346 14 15V17H13C12.448 17 12 17.448 12 18C12 18.552 12.448 19 13 19H14V22C14 24.206 15.794 26 18 26H19V32C19 34.206 20.794 36 23 36H30C32.206 36 34 34.206 34 32V22C34 21.448 33.552 21 33 21C32.448 21 32 21.448 32 22V30H21V26H25C27.206 26 29 24.206 29 22V19H35C35.552 19 36 18.552 36 18C36 17.448 35.552 17 35 17ZM32 32C32 33.103 31.103 34 30 34H23C21.897 34 21 33.103 21 32H32ZM27 22C27 23.103 26.103 24 25 24H18C16.897 24 16 23.103 16 22V15C16 14.449 16.449 14 17 14H27.338C27.122 14.455 27 14.963 27 15.5V22ZM29 15.5C29 14.673 29.673 14 30.5 14C31.327 14 32 14.673 32 15.5V17H29V15.5Z" fill="#FE531F"/>
</g>
<defs>
<clipPath id="clip0_13_87">
<rect width="24" height="24" fill="white" transform="translate(12 12)"/>
</clipPath>
</defs>
</svg>
