<svg width="420" height="200" viewBox="0 0 420 200" xmlns="http://www.w3.org/2000/svg" fill="none">

  <!-- === ICON === -->

  <!-- Bell top button -->
  <circle cx="100" cy="35" r="7" fill="#667EEA"></circle>

  <!-- Bell dome (half sphere) -->
  <path d="
    M40 120
    C40 75 65 45 100 45
    C135 45 160 75 160 120
    Z" fill="#667EEA"></path>

  <!-- Bell base -->
  <rect x="55" y="120" width="90" height="10" rx="5" fill="#667EEA"></rect>
  <rect x="65" y="135" width="70" height="8" rx="4" fill="#667EEA"></rect>

  <!-- QR panel (negative space) -->
  <rect x="76" y="58" width="48" height="48" rx="6" fill="#FFFFFF"></rect>

  <!-- QR finder squares -->
  <rect x="80" y="62" width="12" height="12" rx="2" fill="#667EEA"></rect>
  <rect x="83" y="65" width="6" height="6" rx="1" fill="#FFFFFF"></rect>

  <rect x="108" y="62" width="12" height="12" rx="2" fill="#667EEA"></rect>
  <rect x="111" y="65" width="6" height="6" rx="1" fill="#FFFFFF"></rect>

  <rect x="80" y="90" width="12" height="12" rx="2" fill="#667EEA"></rect>
  <rect x="83" y="93" width="6" height="6" rx="1" fill="#FFFFFF"></rect>

  <!-- QR random modules -->
  <rect x="100" y="78" width="6" height="6" rx="1" fill="#667EEA"></rect>
  <rect x="94" y="86" width="4" height="4" rx="1" fill="#667EEA"></rect>
  <rect x="108" y="86" width="4" height="4" rx="1" fill="#667EEA"></rect>
  <rect x="104" y="94" width="6" height="6" rx="1" fill="#667EEA"></rect>

  <!-- === TEXT === -->
  <text x="190" y="95" font-family="Inter, system-ui, -apple-system, sans-serif" font-size="28" font-weight="500" letter-spacing="0.5" fill="#667EEA">
    hotel fast service
  </text>

</svg>
