<svg width="104" height="15" viewBox="0 0 104 15" fill="none" xmlns="http://www.w3.org/2000/svg">
<path d="M98.7446 14.1917C97.7347 14.1917 96.8654 13.9872 96.1367 13.5781C95.4123 13.1648 94.854 12.5809 94.462 11.8267C94.0699 11.0682 93.8739 10.1711 93.8739 9.13563C93.8739 8.12569 94.0699 7.23932 94.462 6.47654C94.854 5.71376 95.4059 5.1193 96.1175 4.69316C96.8334 4.26702 97.6729 4.05396 98.636 4.05396C99.2837 4.05396 99.8867 4.15836 100.445 4.36717C101.007 4.57171 101.497 4.88066 101.915 5.29401C102.337 5.70736 102.665 6.22725 102.899 6.85367C103.134 7.47583 103.251 8.20452 103.251 9.03975V9.78762H94.9605V8.10012H100.688C100.688 7.70807 100.603 7.36077 100.432 7.05822C100.262 6.75566 100.025 6.51915 99.7226 6.3487C99.4243 6.17398 99.077 6.08663 98.6807 6.08663C98.2674 6.08663 97.9009 6.18251 97.5813 6.37427C97.266 6.56177 97.0188 6.81532 96.8398 7.13492C96.6608 7.45026 96.5692 7.80182 96.565 8.18961V9.79401C96.565 10.2798 96.6544 10.6996 96.8334 11.0532C97.0167 11.4069 97.2745 11.6797 97.6069 11.8714C97.9392 12.0632 98.3334 12.1591 98.7894 12.1591C99.0919 12.1591 99.3689 12.1165 99.6204 12.0312C99.8718 11.946 100.087 11.8182 100.266 11.6477C100.445 11.4773 100.581 11.2684 100.675 11.0213L103.194 11.1875C103.066 11.7926 102.804 12.321 102.407 12.7727C102.015 13.2201 101.508 13.5696 100.886 13.821C100.268 14.0682 99.5543 14.1917 98.7446 14.1917Z" fill="#FE531F"/>
<path d="M88.1418 14.1917C87.1362 14.1917 86.2711 13.9787 85.5467 13.5525C84.8265 13.1221 84.2725 12.5255 83.8847 11.7628C83.5012 11 83.3094 10.1221 83.3094 9.12924C83.3094 8.12356 83.5033 7.24146 83.8911 6.48293C84.2832 5.72015 84.8393 5.12569 85.5594 4.69955C86.2796 4.26915 87.1362 4.05396 88.1291 4.05396C88.9856 4.05396 89.7356 4.20949 90.3791 4.52057C91.0225 4.83165 91.5318 5.26844 91.9068 5.83094C92.2818 6.39344 92.4884 7.05396 92.5268 7.81248H89.9572C89.8847 7.32242 89.693 6.92824 89.3819 6.62995C89.0751 6.32739 88.6724 6.17611 88.1738 6.17611C87.7519 6.17611 87.3833 6.29117 87.068 6.52129C86.7569 6.74714 86.514 7.07739 86.3393 7.51205C86.1646 7.94671 86.0772 8.47299 86.0772 9.09089C86.0772 9.71731 86.1624 10.25 86.3329 10.6889C86.5076 11.1278 86.7526 11.4623 87.068 11.6924C87.3833 11.9226 87.7519 12.0376 88.1738 12.0376C88.4849 12.0376 88.764 11.9737 89.0112 11.8459C89.2626 11.718 89.4693 11.5326 89.6312 11.2898C89.7974 11.0426 89.906 10.7464 89.9572 10.4013H92.5268C92.4842 11.1513 92.2796 11.8118 91.9131 12.3828C91.5509 12.9496 91.0502 13.3927 90.411 13.7123C89.7718 14.0319 89.0154 14.1917 88.1418 14.1917Z" fill="#FE531F"/>
<path d="M78.8015 14V4.18185H81.5245V14H78.8015ZM80.1694 2.91623C79.7646 2.91623 79.4173 2.78199 79.1275 2.51353C78.842 2.2408 78.6992 1.91481 78.6992 1.53554C78.6992 1.16054 78.842 0.838812 79.1275 0.570346C79.4173 0.297619 79.7646 0.161255 80.1694 0.161255C80.5742 0.161255 80.9194 0.297619 81.2049 0.570346C81.4947 0.838812 81.6396 1.16054 81.6396 1.53554C81.6396 1.91481 81.4947 2.2408 81.2049 2.51353C80.9194 2.78199 80.5742 2.91623 80.1694 2.91623Z" fill="#FE531F"/>
<path d="M77.408 4.18176L73.9755 13.9999H70.9073L67.4748 4.18176H70.3512L72.3903 11.2066H72.4926L74.5252 4.18176H77.408Z" fill="#FE531F"/>
<path d="M60.5906 13.9999V4.18176H63.2305V5.89483H63.3328C63.5117 5.28546 63.8122 4.82523 64.234 4.51415C64.6559 4.19881 65.1417 4.04114 65.6914 4.04114C65.8278 4.04114 65.9748 4.04966 66.1325 4.06671C66.2901 4.08375 66.4286 4.10719 66.548 4.13702V6.55321C66.4201 6.51486 66.2433 6.48077 66.0174 6.45094C65.7916 6.42111 65.5849 6.40619 65.3974 6.40619C64.9968 6.40619 64.6389 6.49355 64.3235 6.66827C64.0125 6.83872 63.7653 7.07736 63.5821 7.38418C63.4031 7.691 63.3136 8.04469 63.3136 8.44526V13.9999H60.5906Z" fill="#FE531F"/>
<path d="M54.3072 14.1917C53.2973 14.1917 52.4279 13.9872 51.6992 13.5781C50.9748 13.1648 50.4166 12.5809 50.0245 11.8267C49.6325 11.0682 49.4365 10.1711 49.4365 9.13563C49.4365 8.12569 49.6325 7.23932 50.0245 6.47654C50.4166 5.71376 50.9684 5.1193 51.6801 4.69316C52.396 4.26702 53.2355 4.05396 54.1985 4.05396C54.8463 4.05396 55.4492 4.15836 56.0075 4.36717C56.57 4.57171 57.06 4.88066 57.4777 5.29401C57.8995 5.70736 58.2277 6.22725 58.462 6.85367C58.6964 7.47583 58.8136 8.20452 58.8136 9.03975V9.78762H50.5231V8.10012H56.2504C56.2504 7.70807 56.1652 7.36077 55.9947 7.05822C55.8242 6.75566 55.5877 6.51915 55.2852 6.3487C54.9869 6.17398 54.6396 6.08663 54.2433 6.08663C53.8299 6.08663 53.4635 6.18251 53.1438 6.37427C52.8285 6.56177 52.5813 6.81532 52.4024 7.13492C52.2234 7.45026 52.1318 7.80182 52.1275 8.18961V9.79401C52.1275 10.2798 52.217 10.6996 52.396 11.0532C52.5792 11.4069 52.837 11.6797 53.1694 11.8714C53.5018 12.0632 53.896 12.1591 54.3519 12.1591C54.6545 12.1591 54.9315 12.1165 55.1829 12.0312C55.4343 11.946 55.6495 11.8182 55.8285 11.6477C56.0075 11.4773 56.1438 11.2684 56.2376 11.0213L58.7561 11.1875C58.6282 11.7926 58.3661 12.321 57.9698 12.7727C57.5778 13.2201 57.0707 13.5696 56.4485 13.821C55.8306 14.0682 55.1169 14.1917 54.3072 14.1917Z" fill="#FE531F"/>
<path d="M45.1905 4.674C45.1394 4.15837 44.9199 3.7578 44.5321 3.47229C44.1443 3.18678 43.6181 3.04402 42.9533 3.04402C42.5016 3.04402 42.1202 3.10794 41.8091 3.23578C41.498 3.35936 41.2594 3.53195 41.0932 3.75354C40.9313 3.97513 40.8503 4.22655 40.8503 4.5078C40.8418 4.74218 40.8908 4.94672 40.9973 5.12144C41.1081 5.29615 41.2594 5.44743 41.4511 5.57527C41.6429 5.69885 41.8645 5.80752 42.1159 5.90127C42.3673 5.99076 42.6358 6.06746 42.9213 6.13138L44.0975 6.41263C44.6685 6.54047 45.1926 6.71093 45.6699 6.924C46.1472 7.13706 46.5605 7.39914 46.91 7.71022C47.2594 8.0213 47.53 8.38777 47.7217 8.80965C47.9178 9.23152 48.0179 9.71519 48.0222 10.2606C48.0179 11.0618 47.8134 11.7564 47.4085 12.3444C47.008 12.9283 46.4284 13.3821 45.6699 13.706C44.9156 14.0256 44.0058 14.1854 42.9405 14.1854C41.8837 14.1854 40.9632 14.0234 40.1791 13.6996C39.3993 13.3757 38.7899 12.8963 38.351 12.2614C37.9163 11.6221 37.6884 10.8317 37.6671 9.8899H40.3453C40.3752 10.3288 40.5009 10.6953 40.7225 10.9893C40.9483 11.2791 41.2487 11.4986 41.6237 11.6477C42.003 11.7926 42.4313 11.865 42.9085 11.865C43.3773 11.865 43.7842 11.7969 44.1294 11.6605C44.4788 11.5241 44.7494 11.3345 44.9412 11.0916C45.133 10.8487 45.2288 10.5696 45.2288 10.2543C45.2288 9.96022 45.1415 9.71306 44.9668 9.51277C44.7963 9.31249 44.5449 9.14203 44.2125 9.00141C43.8844 8.86078 43.4817 8.73294 43.0044 8.61789L41.579 8.25993C40.4753 7.99147 39.6038 7.57172 38.9646 7.0007C38.3254 6.42968 38.008 5.6605 38.0122 4.69317C38.008 3.90056 38.2189 3.20809 38.645 2.61576C39.0754 2.02343 39.6656 1.56107 40.4156 1.22868C41.1656 0.896296 42.0179 0.730103 42.9725 0.730103C43.944 0.730103 44.7921 0.896296 45.5165 1.22868C46.2452 1.56107 46.8119 2.02343 47.2168 2.61576C47.6216 3.20809 47.8304 3.89417 47.8432 4.674H45.1905Z" fill="#FE531F"/>
<path d="M36.264 4.18186V6.22732H30.3514V4.18186H36.264ZM31.6937 1.82959H34.4167V10.983C34.4167 11.2344 34.4551 11.4304 34.5318 11.5711C34.6085 11.7074 34.715 11.8033 34.8514 11.8587C34.992 11.9141 35.1539 11.9418 35.3372 11.9418C35.465 11.9418 35.5929 11.9312 35.7207 11.9098C35.8485 11.8843 35.9465 11.8651 36.0147 11.8523L36.443 13.8786C36.3066 13.9212 36.1149 13.9702 35.8677 14.0256C35.6206 14.0853 35.3201 14.1215 34.9664 14.1343C34.3102 14.1598 33.7349 14.0725 33.2406 13.8722C32.7505 13.6719 32.3691 13.3608 32.0964 12.939C31.8237 12.5171 31.6894 11.9844 31.6937 11.341V1.82959Z" fill="#FE531F"/>
<path d="M29.1033 6.98151L26.6104 7.13492C26.5678 6.92185 26.4762 6.73009 26.3356 6.55964C26.1949 6.38492 26.0096 6.24643 25.7795 6.14415C25.5536 6.03762 25.283 5.98435 24.9677 5.98435C24.5458 5.98435 24.19 6.07384 23.9002 6.25282C23.6104 6.42753 23.4655 6.66191 23.4655 6.95594C23.4655 7.19032 23.5593 7.38847 23.7468 7.5504C23.9343 7.71234 24.256 7.84231 24.712 7.94032L26.489 8.29827C27.4435 8.4943 28.1552 8.80964 28.6239 9.2443C29.0927 9.67896 29.327 10.25 29.327 10.9574C29.327 11.6008 29.1374 12.1655 28.7582 12.6513C28.3832 13.1371 27.8675 13.5163 27.2113 13.789C26.5593 14.0575 25.8072 14.1917 24.9549 14.1917C23.6552 14.1917 22.6197 13.9211 21.8484 13.38C21.0813 12.8345 20.6317 12.093 20.4996 11.1555L23.1779 11.0149C23.2589 11.4112 23.4549 11.7138 23.766 11.9226C24.077 12.1271 24.4755 12.2294 24.9613 12.2294C25.4386 12.2294 25.8221 12.1378 26.1118 11.9545C26.4059 11.767 26.555 11.5263 26.5593 11.2322C26.555 10.9851 26.4506 10.7826 26.2461 10.625C26.0415 10.463 25.7262 10.3395 25.3001 10.2542L23.5998 9.91546C22.641 9.7237 21.9272 9.39131 21.4584 8.9183C20.994 8.44529 20.7617 7.84231 20.7617 7.10935C20.7617 6.47867 20.9322 5.93535 21.2731 5.47938C21.6182 5.02342 22.1019 4.67185 22.7241 4.42469C23.3505 4.17753 24.0834 4.05396 24.9229 4.05396C26.163 4.05396 27.1388 4.31603 27.8505 4.84018C28.5664 5.36432 28.984 6.0781 29.1033 6.98151Z" fill="#FE531F"/>
<path d="M13.2926 14.1853C12.6662 14.1853 12.1079 14.0767 11.6179 13.8594C11.1278 13.6378 10.74 13.3118 10.4545 12.8814C10.1733 12.4467 10.0327 11.9055 10.0327 11.2578C10.0327 10.7123 10.1328 10.2542 10.3331 9.8835C10.5334 9.51276 10.8061 9.21447 11.1513 8.98861C11.4964 8.76276 11.8885 8.59231 12.3274 8.47725C12.7706 8.36219 13.2351 8.28123 13.7209 8.23435C14.2919 8.17469 14.7521 8.1193 15.1015 8.06816C15.451 8.01276 15.7045 7.9318 15.8622 7.82526C16.0199 7.71873 16.0987 7.56106 16.0987 7.35225V7.3139C16.0987 6.90907 15.9709 6.59586 15.7152 6.37427C15.4638 6.15268 15.1058 6.04188 14.6413 6.04188C14.1513 6.04188 13.7613 6.15055 13.4716 6.36788C13.1818 6.58094 12.99 6.84941 12.8963 7.17327L10.3778 6.96873C10.5057 6.37214 10.7571 5.85651 11.1321 5.42185C11.5071 4.98293 11.9908 4.64628 12.5831 4.41191C13.1797 4.17327 13.87 4.05396 14.6541 4.05396C15.1996 4.05396 15.7216 4.11788 16.2202 4.24572C16.723 4.37356 17.1683 4.57171 17.5561 4.84018C17.9481 5.10864 18.2571 5.45381 18.4829 5.87569C18.7088 6.2933 18.8217 6.79401 18.8217 7.37782V14H16.2393V12.6385H16.1626C16.005 12.9453 15.794 13.2159 15.5298 13.4503C15.2656 13.6804 14.9481 13.8615 14.5774 13.9936C14.2067 14.1214 13.7784 14.1853 13.2926 14.1853ZM14.0724 12.3061C14.473 12.3061 14.8267 12.2273 15.1335 12.0696C15.4403 11.9076 15.6811 11.6903 15.8558 11.4176C16.0305 11.1449 16.1179 10.8359 16.1179 10.4907V9.44884C16.0327 9.50424 15.9155 9.55538 15.7663 9.60225C15.6214 9.64486 15.4574 9.68535 15.2741 9.7237C15.0909 9.75779 14.9077 9.78975 14.7244 9.81958C14.5412 9.84515 14.375 9.86859 14.2258 9.88989C13.9062 9.93677 13.6271 10.0113 13.3885 10.1136C13.1498 10.2159 12.9645 10.3544 12.8324 10.5291C12.7003 10.6996 12.6342 10.9126 12.6342 11.1683C12.6342 11.539 12.7684 11.8224 13.0369 12.0184C13.3096 12.2102 13.6548 12.3061 14.0724 12.3061Z" fill="#FE531F"/>
<path d="M0.137756 14V0.909058H8.80537V3.19102H2.90551V6.31034H8.23009V8.5923H2.90551V14H0.137756Z" fill="#FE531F"/>
</svg>
