<svg width="48" height="48" viewBox="0 0 48 48" fill="none" xmlns="http://www.w3.org/2000/svg">
<rect width="48" height="48" rx="12" fill="#FE531F" fill-opacity="0.08"/>
<g clip-path="url(#clip0_13_74)">
<path d="M35 33H25V31H32.343C33.808 31 35 29.808 35 28.343V28C35 24.971 33.732 22.045 31.521 19.973C29.704 18.27 27.431 17.258 25 17.043V15H26C26.552 15 27 14.552 27 14C27 13.448 26.552 13 26 13H22C21.448 13 21 13.448 21 14C21 14.552 21.448 15 22 15H23V17.044C17.371 17.553 13 22.462 13 28.343C13 29.808 14.192 31 15.657 31H23V33H13C12.448 33 12 33.448 12 34C12 34.552 12.448 35 13 35H35C35.552 35 36 34.552 36 34C36 33.448 35.552 33 35 33ZM15 28.342C15 23.419 18.689 19.324 23.399 19.019C23.596 19.006 23.792 19 23.987 18.999H24.015C26.309 19.001 28.47 19.853 30.153 21.431C31.989 23.152 33 25.484 33 27.999V28.342C33 28.704 32.705 28.999 32.343 28.999H15.657C15.295 28.999 15 28.705 15 28.342Z" fill="#FE531F"/>
</g>
<defs>
<clipPath id="clip0_13_74">
<rect width="24" height="24" fill="white" transform="translate(12 12)"/>
</clipPath>
</defs>
</svg>
